<?xml version="1.0" encoding="UTF-8"?>
<svg id="Layer_2" data-name="Layer 2" xmlns="http://www.w3.org/2000/svg" viewBox="0 0 667.49 77.41">
  <defs>
    <style>
      .cls-1 {
        fill: #f5f5f5;
      }
    </style>
  </defs>
  <g id="Layer_1-2" data-name="Layer 1">
    <g>
      <path class="cls-1" d="M0,1.64h14.6l30.85,48.55V1.64h15.32v73.91h-14.39L15.32,27.1v48.45H0V1.64h0Z"/>
      <path class="cls-1" d="M151.96,15.82h-22.57V1.64h61.59v14.18h-22.67v59.73h-16.36V15.82h0Z"/>
      <path class="cls-1" d="M196.37,45.22V1.64h16.36v43.79c0,5.86,1.09,10.23,3.26,13.09,2.17,2.87,5.71,4.3,10.61,4.3s8.59-1.43,10.66-4.3c2.07-2.86,3.11-7.23,3.11-13.09V1.64h16.36v43.79c0,10.83-2.6,18.88-7.82,24.12s-12.72,7.87-22.51,7.87-17.25-2.6-22.36-7.82c-5.11-5.21-7.66-13.34-7.66-24.38h0Z"/>
      <path class="cls-1" d="M435.46,44.7h-28.78v30.85l-16.87-.06V1.57l16.87.06v28.47h28.78V1.64h16.36v73.91h-16.36v-30.85h0Z"/>
      <path class="cls-1" d="M459.13,38.8c0-8.28-.09-15.34,2.85-21.17,2.93-5.83,7.09-10.26,12.47-13.3,5.38-3.04,10.14-4.04,17.39-4.04s11.97.98,17.29,3.99c5.32,3,9.4,7.37,12.27,13.09,2.86,5.73,3.26,12.7,3.26,20.91s-.41,15.34-3.31,21.17c-2.9,5.83-7,10.28-12.32,13.35-5.32,3.07-10.11,4.61-17.49,4.61s-11.97-1.5-17.29-4.5c-5.32-3-9.42-7.37-12.32-13.09-2.9-5.73-2.79-12.73-2.79-21.01h0ZM475.59,38.59c0,7.73.52,13.78,3.62,18.17,3.11,4.38,6.21,6.57,12.42,6.57s9.23-2.19,12.37-6.57c3.14-4.38,3.67-10.44,3.67-18.17s-.53-13.78-3.67-18.17c-3.14-4.38-6.23-6.06-12.37-6.06s-9.32,1.67-12.42,6.06c-3.11,4.38-3.62,10.44-3.62,18.17Z"/>
      <path class="cls-1" d="M603.1,1.64h28.05c11.66,0,20.64,3.04,26.91,9.11,6.28,6.07,9.42,15.18,9.42,27.33s-3.3,21.6-9.89,27.95c-6.59,6.35-15.82,9.52-27.69,9.52h-26.81V1.64h0ZM650.82,38.28c0-7.39-1.54-13.04-4.61-16.98-3.07-3.93-7.96-5.9-14.65-5.9h-12.42v46.38h11.39c6.97,0,12.1-2.03,15.37-6.11s4.92-9.87,4.92-17.39h0Z"/>
      <polygon class="cls-1" points="112.01 1.64 92.75 1.64 66.25 75.55 82.61 75.55 88.2 59.19 92.13 46.04 101.96 15.92 111.9 46.04 115.94 59.19 121.43 75.55 138.3 75.55 112.01 1.64"/>
      <polygon class="cls-1" points="345.26 62.4 345.26 44.39 345.26 31.24 345.26 14.78 380.46 14.78 380.46 1.64 329.22 1.64 329.22 75.55 380.87 75.55 382.53 62.4 345.26 62.4"/>
      <polygon class="cls-1" points="355.87 45.94 369.57 45.94 376.84 32.79 369.57 32.79 355.87 32.79 355.87 45.94"/>
      <path class="cls-1" d="M324.04,75.55l-15.18-30.98c3.88-2.05,6.76-4.77,8.66-8.15,1.93-3.45,2.9-7.52,2.9-12.21,0-4.35-.93-8.23-2.79-11.65-1.86-3.42-4.88-6.09-9.06-8.02-4.18-1.93-9.75-2.9-16.72-2.9h-27.85v73.91h15.53V14.26h13.09v.04c4.28.19,7.3,1.05,9.06,2.6,2,1.76,3,5.92,3,9.37.02,3.34-.94,6.38-2.79,8.23-1.79,1.64-4.39,2.47-7.35,2.72h-6.67v13.15h4.54c1.6,0,3.06.92,3.75,2.37l10.8,22.8h17.09Z"/>
      <path class="cls-1" d="M532.1,38.51c0-8.28-.09-15.34,2.85-21.17,2.93-5.83,7.09-10.26,12.47-13.3,5.38-3.04,10.14-4.04,17.39-4.04s11.97.98,17.29,3.99c5.32,3,9.4,7.37,12.27,13.09,2.86,5.73,3.26,12.7,3.26,20.91s-.41,15.34-3.31,21.17c-2.9,5.83-7,10.28-12.32,13.35-5.32,3.07-10.11,4.61-17.49,4.61s-11.97-1.5-17.29-4.5c-5.32-3-9.42-7.37-12.32-13.09-2.9-5.73-2.79-12.73-2.79-21.01h0ZM548.56,38.3c0,7.73.52,13.78,3.62,18.17,3.11,4.38,6.21,6.57,12.42,6.57s9.23-2.19,12.37-6.57c3.14-4.38,3.67-10.44,3.67-18.17s-.53-13.78-3.67-18.17-6.23-6.06-12.37-6.06-9.32,1.67-12.42,6.06c-3.11,4.38-3.62,10.44-3.62,18.17Z"/>
    </g>
  </g>
</svg>